<svg xmlns="http://www.w3.org/2000/svg" width="502.646" height="63.1" viewBox="0 0 502.646 63.1">
  <g id="trinity-agents_logo" transform="translate(-341.7 -283.5)">
    <g id="グループ_1397" data-name="グループ 1397">
      <g id="グループ_1395" data-name="グループ 1395">
        <path id="パス_19" data-name="パス 19" d="M360.2,338.3l4.3,1.1v.7H349.9v-.7l4.3-1.1V291.8h-7.5a13.529,13.529,0,0,1-4.3,9.9h-.7a48.3,48.3,0,0,0,0-11.4h30.9a43.506,43.506,0,0,0,0,11.4h-.7a14.73,14.73,0,0,1-4.3-9.9h-7.5v46.5Z" fill="#ea6000"/>
        <path id="パス_20" data-name="パス 20" d="M392,290.3c19.7-2.2,25.2,22.9,3.9,24.2,19.8.1,8.7,32,17.4,22.7l.7.7c-2.1,4.8-10.5,4-11-1.4-1.6-9.7.7-23.5-13.9-21.3v23.1l4.3,1.1v.7H378.8v-.7l4.3-1.1V292.1l-4.3-1.1v-.7H392Zm11.1,12.4c.3-8.5-6.2-11.8-13.9-11v22C396.9,314.5,403.4,311.2,403.1,302.7Z" fill="#ea6000"/>
        <path id="パス_21" data-name="パス 21" d="M430,338.3l4.3,1.1v.7H419.7v-.7l4.3-1.1V292.1l-4.3-1.1v-.7h14.6v.7l-4.3,1.1Z" fill="#ea6000"/>
        <path id="パス_22" data-name="パス 22" d="M472.4,292.8l-4.6-1.8v-.7h10.7v.7l-4.6,1.8v48h-1.1l-24.2-44.4v41.2l4.6,1.8v.7H442.5v-.7l4.6-1.8V292.5l-4.6-1.4v-.7h9.6l20.2,37.3V292.8Z" fill="#ea6000"/>
        <path id="パス_23" data-name="パス 23" d="M495.3,338.3l4.3,1.1v.7H485v-.7l4.3-1.1V292.1L485,291v-.7h14.6v.7l-4.3,1.1v46.2Z" fill="#ea6000"/>
        <path id="パス_24" data-name="パス 24" d="M524.2,338.3l4.3,1.1v.7H513.9v-.7l4.3-1.1V291.8h-7.5a13.529,13.529,0,0,1-4.3,9.9h-.7a48.3,48.3,0,0,0,0-11.4h30.9a43.506,43.506,0,0,0,0,11.4H536a14.73,14.73,0,0,1-4.3-9.9h-7.5Z" fill="#ea6000"/>
        <path id="パス_25" data-name="パス 25" d="M562.6,320.1v18.1l4.3,1.1v.7H552.3v-.7l4.3-1.1V320.4l-11-28.4-4.3-1.1v-.7h14.9v.7l-4.3,1.1L562,317.9l9.8-25.2-4.6-1.8v-.7h10.7v.7l-4.6,1.8Z" fill="#ea6000"/>
      </g>
      <g id="グループ_1396" data-name="グループ 1396">
        <path id="パス_26" data-name="パス 26" d="M648.2,325.3H633.6L630,337.4l4.6,1.8v.7H624v-.7l4.6-1.8,13.9-48.3h1.1l14.9,49,4.3,1.1v.7H647.9v-.7l4.3-1.1ZM634,323.9h13.8l-7.1-23.5Z" fill="#58342a"/>
        <path id="パス_27" data-name="パス 27" d="M689.7,317.1h-7.1v-1.4h13.1c3.6,23.5-20.9,37.2-29.5,10.7-5.8-14,3.8-48.1,22.7-33.8.9-1.6,2.6-3.5,4.6-3.2a57.389,57.389,0,0,0,0,13.1h-1.1c-1.5-9.6-12-17.6-17.6-7-4.3,10.5-7.4,40.1,6.3,44.3C690.7,338.4,689.4,325.1,689.7,317.1Z" fill="#58342a"/>
        <path id="パス_28" data-name="パス 28" d="M727.5,338.4a13.53,13.53,0,0,1,4.3-9.9h.7a43.506,43.506,0,0,0,0,11.4H703v-.7l4.3-1.1V291.9l-4.3-1.1v-.7h28.8a43.506,43.506,0,0,0,0,11.4h-.7a14.73,14.73,0,0,1-4.3-9.9H713.3v21.3h6.8l3.2-6.4h.7v14.2h-.7l-3.2-6.4h-6.8v24.2h14.2Z" fill="#58342a"/>
        <path id="パス_29" data-name="パス 29" d="M769.2,292.6l-4.6-1.8v-.7h10.7v.7l-4.6,1.8v48h-1.1l-24.2-44.4v41.2l4.6,1.8v.7H739.3v-.7l4.6-1.8V292.3l-4.6-1.4v-.7h9.6l20.2,37.3V292.6Z" fill="#58342a"/>
        <path id="パス_30" data-name="パス 30" d="M798.7,338.1l4.3,1.1v.7H788.4v-.7l4.3-1.1V291.6h-7.5a13.53,13.53,0,0,1-4.3,9.9h-.7a48.3,48.3,0,0,0,0-11.4h30.9a39.587,39.587,0,0,0,0,11.4h-.7a14.73,14.73,0,0,1-4.3-9.9h-7.5v46.5Z" fill="#58342a"/>
        <path id="パス_31" data-name="パス 31" d="M821,299.3c1.2,11.2,16.9,11.8,21.4,21.3,8.1,13.8-11,27.1-22.1,16.7-.9,1.6-2.6,3.5-4.6,3.2a71.648,71.648,0,0,0,0-13.1h1.1c1.3,13.7,22.6,17.4,22.7,1.8-1.2-11.2-16.9-11.8-21.4-21.3-7.5-12.1,9.1-25.5,19.3-15.3.9-1.6,2.6-3.5,4.6-3.2a57.389,57.389,0,0,0,0,13.1h-1.1C839.8,290.2,821.8,284.8,821,299.3Z" fill="#58342a"/>
      </g>
    </g>
    <g id="グループ_1401" data-name="グループ 1401">
      <g id="グループ_1398" data-name="グループ 1398">
        <path id="パス_32" data-name="パス 32" d="M608.6,323.7H591.7a1.3,1.3,0,0,1,0-2.6h16.9a1.324,1.324,0,0,1,1.3,1.3A1.206,1.206,0,0,1,608.6,323.7Z" fill="#ea6000"/>
        <path id="パス_33" data-name="パス 33" d="M608.6,316.3H591.7a1.3,1.3,0,1,1,0-2.6h16.9a1.324,1.324,0,0,1,1.3,1.3A1.26,1.26,0,0,1,608.6,316.3Z" fill="#58342a"/>
        <path id="パス_34" data-name="パス 34" d="M608.6,309H591.7a1.3,1.3,0,1,1,0-2.6h16.9a1.324,1.324,0,0,1,1.3,1.3A1.206,1.206,0,0,1,608.6,309Z" fill="#ea6000"/>
      </g>
      <g id="グループ_1399" data-name="グループ 1399">
        <path id="パス_35" data-name="パス 35" d="M592.5,300.5a1.324,1.324,0,0,1-1.3-1.3V284.8a1.3,1.3,0,0,1,2.6,0v14.4A1.324,1.324,0,0,1,592.5,300.5Z" fill="#ea6000"/>
        <path id="パス_36" data-name="パス 36" d="M600.2,300.5a1.324,1.324,0,0,1-1.3-1.3V284.8a1.3,1.3,0,0,1,2.6,0v14.4A1.324,1.324,0,0,1,600.2,300.5Z" fill="#58342a"/>
        <path id="パス_37" data-name="パス 37" d="M607.9,300.5a1.324,1.324,0,0,1-1.3-1.3V284.8a1.3,1.3,0,0,1,2.6,0v14.4A1.324,1.324,0,0,1,607.9,300.5Z" fill="#ea6000"/>
      </g>
      <g id="グループ_1400" data-name="グループ 1400">
        <path id="パス_38" data-name="パス 38" d="M592.5,346.6a1.324,1.324,0,0,1-1.3-1.3V330.9a1.3,1.3,0,0,1,2.6,0v14.4A1.324,1.324,0,0,1,592.5,346.6Z" fill="#ea6000"/>
        <path id="パス_39" data-name="パス 39" d="M600.2,346.6a1.324,1.324,0,0,1-1.3-1.3V330.9a1.3,1.3,0,0,1,2.6,0v14.4A1.324,1.324,0,0,1,600.2,346.6Z" fill="#58342a"/>
        <path id="パス_40" data-name="パス 40" d="M607.9,346.6a1.324,1.324,0,0,1-1.3-1.3V330.9a1.3,1.3,0,0,1,2.6,0v14.4A1.324,1.324,0,0,1,607.9,346.6Z" fill="#ea6000"/>
      </g>
    </g>
  </g>
</svg>
