<?xml version="1.0" standalone="no"?>
<!DOCTYPE svg PUBLIC "-//W3C//DTD SVG 20010904//EN"
 "http://www.w3.org/TR/2001/REC-SVG-20010904/DTD/svg10.dtd">
<svg version="1.0" xmlns="http://www.w3.org/2000/svg"
 width="704.000000pt" height="704.000000pt" viewBox="0 0 704.000000 704.000000"
 preserveAspectRatio="xMidYMid meet">
<metadata>
Created by potrace 1.14, written by Peter Selinger 2001-2017
</metadata>
<g transform="translate(0.000000,704.000000) scale(0.100000,-0.100000)"
fill="#000000" stroke="none">
<path d="M265 6827 c-125 -71 -207 -177 -249 -316 -14 -49 -16 -319 -15 -2965
0 -3136 -3 -2948 51 -3063 28 -61 30 -63 109 -142 102 -105 223 -153 362 -147
103 5 115 8 202 50 81 38 175 123 218 197 15 25 37 75 49 110 l23 64 0 2920
c0 1606 -3 2934 -7 2950 -25 121 -115 252 -223 320 l-54 35 -223 -1 c-148 -1
-230 -5 -243 -12z"/>
<path d="M3265 6820 c-93 -59 -162 -134 -204 -222 -13 -27 -24 -54 -25 -60 -1
-7 -6 -20 -11 -28 -14 -20 -16 -5827 -3 -5901 15 -87 71 -191 136 -256 75 -75
81 -79 156 -114 81 -38 93 -41 199 -44 72 -2 100 1 157 21 94 33 135 58 200
124 81 81 99 110 137 215 17 48 18 183 21 2965 2 2071 -1 2930 -9 2968 -25
120 -110 242 -224 318 l-50 34 -225 -1 c-202 0 -228 -2 -255 -19z"/>
<path d="M6255 6806 c-66 -43 -143 -130 -178 -199 -58 -115 -55 53 -52 -3082
1 -1589 5 -2907 9 -2928 11 -70 75 -184 140 -250 189 -192 469 -208 676 -38
30 25 58 51 63 58 4 7 14 19 22 27 8 8 15 18 15 21 0 4 10 20 21 37 12 16 32
62 45 101 l23 72 1 2914 c0 2700 -1 2919 -17 2975 -9 34 -21 64 -27 68 -6 4
-8 8 -4 8 12 0 -48 91 -89 136 -37 40 -84 77 -132 102 -17 8 -86 12 -245 11
l-221 0 -50 -33z"/>
</g>
</svg>
